<svg xmlns="http://www.w3.org/2000/svg" viewBox="0 0 520.18 142.17" width="96" height="27">
	<path fill="#ffc80a" d="M71.4.52a9,9,0,0,1,9.46,2.21q31.69,31.32,63.44,62.58c1.59,1.62,3.48,3.08,4.41,5.2a8.8,8.8,0,0,1-3.6,11A9.1,9.1,0,0,1,134.18,80c-20-19.51-39.7-39.4-59.77-58.89q-28,27.95-56,55.72C16,79.1,13.93,82.1,10.46,82.55a8.81,8.81,0,0,1-10-5.72,8.92,8.92,0,0,1,2-8.93Q34,36.46,65.65,5.08C67.41,3.39,69,1.31,71.4.52M26,73.59c16.24-16,32.36-32.21,48.7-48.15q26.53,26.19,53,52.44c.1,21.42,0,42.86,0,64.28q-18.59,0-37.19,0c0-16.51.07-33,0-49.56a3.33,3.33,0,0,0-3.44-3.7c-8.24,0-16.48,0-24.72,0A3.27,3.27,0,0,0,58.77,92c0,16.73,0,33.47,0,50.21H21.56q0-30.85,0-61.73c-.45-3.15,3-4.56,4.48-6.84m163.08-27.7c6.23-2,12.42-4,18.66-5.91,6.27,10,12.3,20.22,18.6,30.24Q232.64,55.07,239.09,40c5.87,1.93,11.72,3.9,17.58,5.86-10.55,23.22-21.3,46.35-31.8,69.58-6.76-.68-13.5-1.59-20.25-2.38C208.79,105,213,97,217.06,88.87q-14-21.47-27.95-43m72.3-3.44c6.09-.6,12.17-1.2,18.27-1.63,0,9.35,0,18.7,0,28.06h6.82a37.08,37.08,0,0,1,18.08-23.19c14.88-8.42,35.15-5.8,47.21,6.4A36.54,36.54,0,0,1,351,105c-12.9,12.29-34.36,14-49.11,4.06A37.4,37.4,0,0,1,286,85.13h-6.34c0,9.31,0,18.62,0,27.93-6.08.45-12.15,1-18.22,1.65-.08-24.09,0-48.17,0-72.26m55.84,15.9c-10.33,3.5-16.19,15.84-12.76,26.12,2.58,9.39,12.62,16.08,22.3,14.31,10.61-1.45,18.84-12.15,17.38-22.8-1-12.52-14.93-22.26-26.92-17.63M472.32,47.2c5.31-4.73,12.61-6.62,19.61-6.36,8.52-.22,17.52,3.41,22.24,10.76,4.65,6.82,4.93,16,1.65,23.43-4,8.72-11.14,15.35-16.92,22.82,7.09.07,14.19,0,21.28,0-1.46,5.41-2.92,10.82-4.33,16.25-17.38,0-34.76,0-52.14,0q11.71-14,23.43-28c3.75-4.62,8-9,10.72-14.31,1.8-3.69,2.66-8.54,0-12C494,54.87,485,55.62,482.69,61.6c-2.16,4.73,1.12,10.21,5.79,11.79-3.49,4.45-6.75,9.07-10.26,13.49C473.64,84.26,469.4,80.71,467,76c-5-9.31-2.62-21.86,5.37-28.76M370,42.37c16.83,0,33.66,0,50.49,0,0,5.4,0,10.81,0,16.22-5.93,0-11.85,0-17.76,0q0,27.24,0,54.46c-6.07.62-12.16,1.08-18.23,1.61-.05-18.69,0-37.38,0-56.07-6.4,0-12.8,0-19.2,0,1.59-5.41,3.09-10.85,4.73-16.24m56.73,34.27q15.12,0,30.25,0,0,7.37,0,14.75-15.12,0-30.24,0c0-4.92,0-9.83,0-14.74Z"/>
</svg>